<svg width="1280" height="720" xmlns="http://www.w3.org/2000/svg" xmlns:xlink="http://www.w3.org/1999/xlink" overflow="hidden"><defs><clipPath id="clip0"><rect x="0" y="0" width="1280" height="720"/></clipPath></defs><g clip-path="url(#clip0)"><rect x="0" y="0" width="1280" height="720" fill="#FFFFFF"/><rect x="538.5" y="84.5001" width="204" height="57" stroke="#41719C" stroke-width="1.33333" stroke-miterlimit="8" fill="#9DC3E6"/><text font-family="Calibri,Calibri_MSFontService,sans-serif" font-weight="400" font-size="13" transform="translate(547.493 101)">The user needs to be able to drink <tspan font-size="13" x="0" y="16">from a receptacle they can hold in </tspan><tspan font-size="13" x="0" y="32">their hand.</tspan></text><rect x="538.5" y="65.5001" width="204" height="19" stroke="#41719C" stroke-width="1.33333" stroke-miterlimit="8" fill="#5B9BD5"/><text font-family="Calibri,Calibri_MSFontService,sans-serif" font-weight="700" font-size="13" transform="translate(547.493 78)">FR<tspan font-weight="400" font-size="13" x="16.6666" y="0">Hold liquid for user to drink</tspan></text><rect x="538.5" y="233.5" width="204" height="58" stroke="#BC8C00" stroke-width="1.33333" stroke-miterlimit="8" fill="#FFD966"/><text font-family="Calibri,Calibri_MSFontService,sans-serif" font-weight="400" font-size="13" transform="translate(547.41 250)">A cup with a handle, to be used <tspan font-size="13" x="0" y="16">without a saucer.</tspan></text><rect x="538.5" y="214.5" width="204" height="19" stroke="#BC8C00" stroke-width="1.33333" stroke-miterlimit="8" fill="#FFC000"/><text font-family="Calibri,Calibri_MSFontService,sans-serif" font-weight="700" font-size="13" transform="translate(547.41 228)">DS<tspan font-weight="400" font-size="13" x="17.6667" y="0">Mug</tspan></text><path d="M0.666666-0.00075645 0.742251 66.6131-0.591081 66.6146-0.666666 0.00075645ZM4.07407 65.276 0.0831496 73.2805-3.92593 65.2851Z" transform="matrix(-1 0 0 1 640.583 141.5)"/><rect x="389.5" y="383.5" width="205" height="58" stroke="#41719C" stroke-width="1.33333" stroke-miterlimit="8" fill="#9DC3E6"/><rect x="389.5" y="364.5" width="205" height="19" stroke="#41719C" stroke-width="1.33333" stroke-miterlimit="8" fill="#5B9BD5"/><text font-family="Calibri,Calibri_MSFontService,sans-serif" font-weight="700" font-size="13" transform="translate(399.072 378)">FR<tspan font-weight="400" font-size="13" x="16.6667" y="0">Hold liquid</tspan></text><rect x="686.5" y="383.5" width="205" height="58" stroke="#41719C" stroke-width="1.33333" stroke-miterlimit="8" fill="#9DC3E6"/><rect x="686.5" y="364.5" width="205" height="19" stroke="#41719C" stroke-width="1.33333" stroke-miterlimit="8" fill="#5B9BD5"/><text font-family="Calibri,Calibri_MSFontService,sans-serif" font-weight="700" font-size="13" transform="translate(695.915 378)">FR<tspan font-weight="400" font-size="13" x="16.6667" y="0">Keep temperature</tspan></text><rect x="93.5001" y="383.5" width="204" height="58" stroke="#41719C" stroke-width="1.33333" stroke-miterlimit="8" fill="#9DC3E6"/><rect x="93.5001" y="364.5" width="204" height="19" stroke="#41719C" stroke-width="1.33333" stroke-miterlimit="8" fill="#5B9BD5"/><text font-family="Calibri,Calibri_MSFontService,sans-serif" font-weight="700" font-size="13" transform="translate(102.229 378)">FR<tspan font-weight="400" font-size="13" x="16.6667" y="0">Manual handling</tspan></text><rect x="983.5" y="383.5" width="204" height="58" stroke="#41719C" stroke-width="1.33333" stroke-miterlimit="8" fill="#9DC3E6"/><rect x="983.5" y="364.5" width="204" height="19" stroke="#41719C" stroke-width="1.33333" stroke-miterlimit="8" fill="#5B9BD5"/><text font-family="Calibri,Calibri_MSFontService,sans-serif" font-weight="700" font-size="13" transform="translate(992.758 378)">FR<tspan font-weight="400" font-size="13" x="16.6666" y="0">Prevent spillage</tspan></text><rect x="93.5001" y="530.5" width="155" height="57" stroke="#BC8C00" stroke-width="1.33333" stroke-miterlimit="8" fill="#FFD966"/><rect x="93.5001" y="511.5" width="155" height="19" stroke="#BC8C00" stroke-width="1.33333" stroke-miterlimit="8" fill="#FFC000"/><text font-family="Calibri,Calibri_MSFontService,sans-serif" font-weight="700" font-size="13" transform="translate(102.626 524)">DS<tspan font-weight="400" font-size="13" x="17.6667" y="0">Rounded handle</tspan></text><rect x="117.5" y="561.5" width="156" height="58" stroke="#BC8C00" stroke-width="1.33333" stroke-miterlimit="8" fill="#FFD966"/><rect x="117.5" y="542.5" width="156" height="19" stroke="#BC8C00" stroke-width="1.33333" stroke-miterlimit="8" fill="#FFC000"/><text font-family="Calibri,Calibri_MSFontService,sans-serif" font-weight="700" font-size="13" transform="translate(127.084 556)">DS<tspan font-weight="400" font-size="13" x="17.6667" y="0">Rectangular handle</tspan></text><rect x="142.5" y="593.5" width="155" height="57" stroke="#BC8C00" stroke-width="1.33333" stroke-miterlimit="8" fill="#FFD966"/><rect x="142.5" y="574.5" width="155" height="19" stroke="#BC8C00" stroke-width="1.33333" stroke-miterlimit="8" fill="#FFC000"/><text font-family="Calibri,Calibri_MSFontService,sans-serif" font-weight="700" font-size="13" transform="translate(151.542 587)">DS<tspan font-weight="400" font-size="13" x="17.6667" y="0">Open handle</tspan></text><path d="M0.108207-0.657826 438.708 71.4881 438.492 72.8038-0.108207 0.657826ZM437.936 67.983 445.181 73.2284 436.638 75.8769Z" transform="matrix(-1 0 0 1 640.681 291.5)"/><path d="M0.295106-0.597793 142.655 69.6795 142.065 70.8751-0.295106 0.597793ZM142.935 66.1004 148.338 73.2284 139.394 73.2739Z" transform="matrix(-1 0 0 1 640.838 291.5)"/><path d="M640.795 290.902 783.32 361.182 782.73 362.378 640.205 292.098ZM783.598 357.603 789.004 364.729 780.06 364.778Z"/><path d="M640.608 290.842 1079.38 362.989 1079.16 364.305 640.392 292.158ZM1078.6 359.484 1085.85 364.729 1077.3 367.378Z"/><path d="M0.630662-0.216126 22.6123 63.9268 21.351 64.359-0.630662 0.216126ZM25.3333 61.5849 24.1429 70.4496 17.7654 64.1784Z" transform="matrix(-1 0 0 1 195.643 441.5)"/><path d="M196.167 441.498 196.461 536.655 195.128 536.659 194.833 441.502ZM199.791 535.311 195.815 543.323 191.791 535.336Z"/><path d="M196.155 441.378 219.71 568.021 218.399 568.265 194.845 441.622ZM222.743 566.101 220.274 574.697 214.878 567.563Z"/><rect x="389.5" y="530.5" width="156" height="57" stroke="#BC8C00" stroke-width="1.33333" stroke-miterlimit="8" fill="#FFD966"/><rect x="389.5" y="511.5" width="156" height="19" stroke="#BC8C00" stroke-width="1.33333" stroke-miterlimit="8" fill="#FFC000"/><text font-family="Calibri,Calibri_MSFontService,sans-serif" font-weight="700" font-size="13" transform="translate(399.072 524)">DS<tspan font-weight="400" font-size="13" x="17.6667" y="0">Cylindrical body</tspan></text><rect x="414.5" y="562.5" width="155" height="57" stroke="#BC8C00" stroke-width="1.33333" stroke-miterlimit="8" fill="#FFD966"/><rect x="414.5" y="543.5" width="155" height="19" stroke="#BC8C00" stroke-width="1.33333" stroke-miterlimit="8" fill="#FFC000"/><text font-family="Calibri,Calibri_MSFontService,sans-serif" font-weight="700" font-size="13" transform="translate(423.612 556)">DS<tspan font-weight="400" font-size="13" x="17.6667" y="0">Conical body</tspan></text><rect x="439.5" y="593.5" width="155" height="58" stroke="#BC8C00" stroke-width="1.33333" stroke-miterlimit="8" fill="#FFD966"/><rect x="439.5" y="574.5" width="155" height="19" stroke="#BC8C00" stroke-width="1.33333" stroke-miterlimit="8" fill="#FFC000"/><text font-family="Calibri,Calibri_MSFontService,sans-serif" font-weight="700" font-size="13" transform="translate(448.151 588)">DS<tspan font-weight="400" font-size="13" x="17.6667" y="0">Inverted conical body</tspan></text><path d="M0.62951-0.219459 22.9744 63.8759 21.7153 64.3148-0.62951 0.219459ZM25.683 61.5196 24.5394 70.3904 18.1289 64.1531Z" transform="matrix(-1 0 0 1 492.039 441.5)"/><path d="M493.167 441.5 493.167 536.937 491.833 536.937 491.833 441.5ZM496.5 535.603 492.5 543.603 488.5 535.603Z"/><path d="M493.156 441.38 516.493 568.639 515.181 568.879 491.844 441.62ZM519.531 566.726 517.039 575.316 511.662 568.169Z"/><rect x="686.5" y="531.5" width="155" height="57" stroke="#BC8C00" stroke-width="1.33333" stroke-miterlimit="8" fill="#FFD966"/><rect x="686.5" y="512.5" width="155" height="19" stroke="#BC8C00" stroke-width="1.33333" stroke-miterlimit="8" fill="#FFC000"/><text font-family="Calibri,Calibri_MSFontService,sans-serif" font-weight="700" font-size="13" transform="translate(695.681 525)">DS<tspan font-weight="400" font-size="13" x="17.6667" y="0">Thick walls</tspan></text><rect x="711.5" y="563.5" width="155" height="57" stroke="#BC8C00" stroke-width="1.33333" stroke-miterlimit="8" fill="#FFD966"/><rect x="711.5" y="544.5" width="155" height="19" stroke="#BC8C00" stroke-width="1.33333" stroke-miterlimit="8" fill="#FFC000"/><text font-family="Calibri,Calibri_MSFontService,sans-serif" font-weight="700" font-size="13" transform="translate(720.22 557)">DS<tspan font-weight="400" font-size="13" x="17.6667" y="0">Double walls</tspan></text><rect x="735.5" y="595.5" width="155" height="57" stroke="#BC8C00" stroke-width="1.33333" stroke-miterlimit="8" fill="#FFD966"/><rect x="735.5" y="576.5" width="155" height="19" stroke="#BC8C00" stroke-width="1.33333" stroke-miterlimit="8" fill="#FFC000"/><text font-family="Calibri,Calibri_MSFontService,sans-serif" font-weight="700" font-size="13" transform="translate(744.759 589)">DS<tspan font-weight="400" font-size="13" x="17.6667" y="0">Peltier element</tspan></text><path d="M0.629925-0.218265 23.2208 64.9805 21.961 65.417-0.629925 0.218265ZM25.9339 62.6293 24.7735 71.4979 18.3748 65.2484Z" transform="matrix(-1 0 0 1 789.274 441.5)"/><path d="M0.666665-0.00150967 0.885794 96.7649-0.447536 96.7679-0.666665 0.00150967ZM4.2161 95.424 0.234226 103.433-3.78388 95.4421Z" transform="matrix(-1 0 0 1 788.734 441.5)"/><path d="M789.156 441.382 812.283 570.189 810.971 570.424 787.844 441.618ZM815.328 568.287 812.805 576.868 807.454 569.701Z"/><rect x="983.5" y="531.5" width="155" height="57" stroke="#BC8C00" stroke-width="1.33333" stroke-miterlimit="8" fill="#FFD966"/><rect x="983.5" y="512.5" width="155" height="19" stroke="#BC8C00" stroke-width="1.33333" stroke-miterlimit="8" fill="#FFC000"/><text font-family="Calibri,Calibri_MSFontService,sans-serif" font-weight="700" font-size="13" transform="translate(992.289 525)">DS<tspan font-weight="400" font-size="13" x="17.6667" y="0">Filling limit indicator</tspan></text><rect x="1007.5" y="562.5" width="155" height="58" stroke="#BC8C00" stroke-width="1.33333" stroke-miterlimit="8" fill="#FFD966"/><rect x="1007.5" y="543.5" width="155" height="19" stroke="#BC8C00" stroke-width="1.33333" stroke-miterlimit="8" fill="#FFC000"/><text font-family="Calibri,Calibri_MSFontService,sans-serif" font-weight="700" font-size="13" transform="translate(1016.83 557)">DS<tspan font-weight="400" font-size="13" x="17.6667" y="0">Lid</tspan></text><path d="M0.629284-0.220104 23.436 64.985 22.1775 65.4252-0.629284 0.220104ZM26.1422 62.6259 25.0078 71.4979 18.5908 65.2672Z" transform="matrix(-1 0 0 1 1085.51 441.5)"/><path d="M0.66666-0.00304056 1.10471 96.0408-0.228614 96.0469-0.66666 0.00304056ZM4.43192 94.6923 0.468451 102.71-3.56799 94.7288Z" transform="matrix(-1 0 0 1 1085.97 441.5)"/><text fill="#70AD47" font-family="Calibri,Calibri_MSFontService,sans-serif" font-weight="700" font-size="187" transform="matrix(0.832546 -0.553956 0.553956 0.832546 368.94 585)">exampl<tspan font-size="187" x="563.757" y="0.355774">e</tspan></text><path d="M0.0585959-0.664087 2.25859-0.46997 4.49553 0.253746 6.70991 1.29581 8.84538 2.78417 11.0227 4.64129 13.1362 6.88292 17.2456 12.3832 21.1534 19.1903 24.9241 27.1087 28.5019 36.1473 31.8249 46.1792 34.8954 57.0198 37.6515 68.6707 40.0941 80.946 42.0976 93.7815 43.788 107.054 44.9774 120.639 45.7913 134.412 46.0418 148.312 45.7913 162.212 45.0401 176.047 43.8505 189.634 42.1601 202.906 40.1568 215.678 37.7769 227.953 35.0209 239.603 32.0135 250.505 28.753 260.475 25.2386 269.512 21.5294 277.496 17.6211 284.241 13.5754 289.74 11.4671 291.976 9.37802 293.87 7.18414 294.946 6.5969 293.749 8.70638 292.714 8.55232 292.818 10.5523 291.006 10.5149 291.043 12.5774 288.855 12.5255 288.917 16.5255 283.48 16.4857 283.541 20.3607 276.853 20.3329 276.907 24.0204 268.969 24.0037 269.008 27.5037 260.008 27.4914 260.043 30.7414 250.105 30.7323 250.135 33.7323 239.26 33.7262 239.284 36.4762 227.659 36.4705 227.686 38.8455 215.436 38.8414 215.459 40.8414 202.709 40.8387 202.728 42.5262 189.478 42.5234 189.504 43.7109 175.942 43.7093 175.964 44.4593 162.151 44.4584 162.175 44.7084 148.3 44.7084 148.324 44.4584 134.449 44.4595 134.477 43.647 120.727 43.6484 120.746 42.4609 107.183 42.4637 107.209 40.7762 93.9592 40.7788 93.9778 38.7788 81.1653 38.7836 81.1926 36.3461 68.9426 36.3512 68.966 33.6012 57.341 33.6086 57.3692 30.5461 46.5567 30.5546 46.5846 27.2421 36.5846 27.2551 36.6204 23.6926 27.6204 23.7106 27.6616 19.9606 19.7866 19.9843 19.8319 16.1093 13.0819 16.1534 13.149 12.0909 7.71152 12.1399 7.76984 10.0774 5.58234 10.1299 5.63222 8.00487 3.81972 8.0563 3.85943 5.9938 2.42193 6.09114 2.47821 3.96614 1.47821 4.04479 1.5093 1.91979 0.821796 2.0664 0.851587-0.0585959 0.664087ZM9.51021 297.651 0.625 296.625 6.77704 290.132Z" transform="matrix(1.83697e-16 1 1 -1.83697e-16 220.5 650.5)"/><path d="M0.0826898-0.661519 1.6845-0.461292 3.32582 0.29098 4.91877 1.35295 6.49409 2.86262 7.97422 4.72888 9.50897 6.96705 12.4174 12.4677 15.1881 19.2686 17.8253 27.1803 20.3332 36.2087 22.7141 46.2336 24.8435 57.0684 26.7839 68.7105 28.5364 80.9782 29.9758 93.8081 31.1649 107.075 31.9783 120.654 32.5415 134.419 32.7293 148.316 32.0412 176.028 31.2275 189.611 30.1011 202.876 28.7244 215.642 27.0971 227.909 25.2195 239.551 23.2157 250.446 20.9601 260.409 18.5775 269.438 16.0031 277.412 13.3602 284.145 10.6421 289.644 9.13191 291.943 7.50217 293.363 6.62626 292.357 8.18704 290.997 8.06786 291.134 9.50536 288.946 9.46485 289.017 12.1523 283.58 12.1294 283.631 14.7544 276.944 14.7406 276.983 17.3031 269.045 17.2929 269.08 19.6679 260.08 19.6623 260.103 21.9123 250.165 21.9068 250.192 23.9068 239.317 23.9043 239.331 25.7793 227.706 25.7766 227.725 27.4016 215.475 27.3997 215.491 28.7747 202.741 28.7732 202.756 29.8982 189.506 29.897 189.523 30.7095 175.96 30.7085 175.983 31.396 148.296 31.3959 148.321 31.2084 134.446 31.2089 134.465 30.6464 120.715 30.647 120.727 29.8345 107.165 29.836 107.185 28.6485 93.9345 28.65 93.9493 27.2125 81.1368 27.215 81.1568 25.465 68.9068 25.4674 68.9221 23.5299 57.2971 23.5333 57.3161 21.4083 46.5036 21.4139 46.529 19.0389 36.529 19.0452 36.5534 16.5452 27.5534 16.555 27.5858 13.93 19.7108 13.9451 19.7515 11.1951 13.0015 11.2231 13.0616 8.34814 7.62411 8.38768 7.68952 6.88768 5.50202 6.91517 5.53926 5.47767 3.72676 5.53873 3.79383 4.03873 2.35633 4.1302 2.4297 2.6302 1.4297 2.72223 1.48104 1.22223 0.793543 1.41731 0.849019-0.0826898 0.661519ZM10.4236 295.408 1.5625 296.625 5.90553 288.806Z" transform="matrix(1.83697e-16 1 1 -1.83697e-16 516.5 651.5)"/><path d="M1085.84 620.566 1085.4 624.998 1084.18 629.416 1082.14 633.882 1079.34 638.268 1075.8 642.572 1071.57 646.865 1066.66 651.022 1061.12 655.17 1054.97 659.252 1048.19 663.269 1040.85 667.158 1032.96 670.918 1024.56 674.676 1015.67 678.247 1006.34 681.691 996.511 685.071 986.305 688.264 975.663 691.269 953.391 696.962 929.865 701.905 905.341 706.097 879.942 709.537 853.916 712.04 827.454 713.541 800.805 714.104 774.16 713.729 747.706 712.728 721.689 711.04 696.298 708.788 671.782 705.974 648.264 702.722 625.996 698.969 615.421 696.904 605.162 694.777 595.4 692.587 586.012 690.271 577.121 687.892 568.731 685.387 560.903 682.882 553.569 680.312 546.795 677.615 540.647 674.918 535.115 672.214 530.2 669.379 525.97 666.538 522.414 663.68 519.57 660.707 518.231 658.184 519.409 657.559 520.704 660 520.597 659.852 523.347 662.727 523.283 662.668 526.783 665.48 526.737 665.447 530.924 668.259 530.886 668.235 535.761 671.048 535.72 671.026 541.22 673.714 541.196 673.702 547.321 676.39 547.299 676.381 554.049 679.068 554.023 679.058 561.336 681.621 561.318 681.615 569.131 684.115 569.118 684.111 577.494 686.611 577.475 686.606 586.35 688.981 586.337 688.978 595.712 691.29 595.699 691.287 605.449 693.475 605.438 693.472 615.688 695.597 615.681 695.596 626.243 697.658 626.226 697.655 648.476 701.405 648.457 701.402 671.957 704.652 671.941 704.65 696.441 707.463 696.424 707.461 721.799 709.711 721.783 709.71 747.783 711.397 747.766 711.396 774.203 712.396 774.187 712.396 800.812 712.771 800.789 712.771 827.414 712.209 827.39 712.209 853.828 710.709 853.801 710.711 879.801 708.211 879.776 708.214 905.151 704.777 905.128 704.78 929.628 700.593 929.603 700.598 953.103 695.66 953.075 695.667 975.325 689.979 975.309 689.983 985.934 686.983 985.916 686.989 996.104 683.801 996.086 683.807 1005.9 680.432 1005.88 680.437 1015.2 677 1015.18 677.006 1024.05 673.444 1024.03 673.454 1032.41 669.704 1032.39 669.711 1040.27 665.961 1040.24 665.974 1047.55 662.099 1047.53 662.114 1054.28 658.114 1054.25 658.132 1060.37 654.069 1060.34 654.092 1065.84 649.967 1065.81 649.991 1070.68 645.866 1070.64 645.907 1074.83 641.657 1074.79 641.701 1078.29 637.451 1078.24 637.517 1080.99 633.204 1080.95 633.285 1082.95 628.91 1082.91 629.011 1084.1 624.698 1084.08 624.809 1084.51 620.434ZM515.538 660.519 516.49 651.625 523.034 657.723Z"/></g></svg>