<svg width="1280" height="720" xmlns="http://www.w3.org/2000/svg" xmlns:xlink="http://www.w3.org/1999/xlink" overflow="hidden"><defs><clipPath id="clip0"><rect x="0" y="0" width="1280" height="720"/></clipPath></defs><g clip-path="url(#clip0)"><rect x="0" y="0" width="1280" height="720" fill="#FFFFFF"/><rect x="538.5" y="84.5001" width="204" height="57" stroke="#41719C" stroke-width="1.33333" stroke-miterlimit="8" fill="#9DC3E6"/><text font-family="Calibri,Calibri_MSFontService,sans-serif" font-weight="400" font-size="13" transform="translate(547.493 101)">The user needs to be able to drink <tspan font-size="13" x="0" y="16">from a receptacle they can hold in </tspan><tspan font-size="13" x="0" y="32">their hand.</tspan></text><rect x="538.5" y="65.5001" width="204" height="19" stroke="#41719C" stroke-width="1.33333" stroke-miterlimit="8" fill="#5B9BD5"/><text font-family="Calibri,Calibri_MSFontService,sans-serif" font-weight="700" font-size="13" transform="translate(547.493 78)">FR<tspan font-weight="400" font-size="13" x="16.6666" y="0">Hold liquid for user to drink</tspan></text><rect x="538.5" y="233.5" width="204" height="58" stroke="#BC8C00" stroke-width="1.33333" stroke-miterlimit="8" fill="#FFD966"/><text font-family="Calibri,Calibri_MSFontService,sans-serif" font-weight="400" font-size="13" transform="translate(547.41 250)">A cup with a handle, to be used <tspan font-size="13" x="0" y="16">without a saucer.</tspan></text><rect x="538.5" y="214.5" width="204" height="19" stroke="#BC8C00" stroke-width="1.33333" stroke-miterlimit="8" fill="#FFC000"/><text font-family="Calibri,Calibri_MSFontService,sans-serif" font-weight="700" font-size="13" transform="translate(547.41 228)">DS<tspan font-weight="400" font-size="13" x="17.6667" y="0">Mug</tspan></text><path d="M0.666666-0.00075645 0.742251 66.6131-0.591081 66.6146-0.666666 0.00075645ZM4.07407 65.276 0.0831496 73.2805-3.92593 65.2851Z" transform="matrix(-1 0 0 1 640.583 141.5)"/><rect x="389.5" y="383.5" width="205" height="58" stroke="#41719C" stroke-width="1.33333" stroke-miterlimit="8" fill="#9DC3E6"/><rect x="389.5" y="364.5" width="205" height="19" stroke="#41719C" stroke-width="1.33333" stroke-miterlimit="8" fill="#5B9BD5"/><text font-family="Calibri,Calibri_MSFontService,sans-serif" font-weight="700" font-size="13" transform="translate(399.072 378)">FR<tspan font-weight="400" font-size="13" x="16.6667" y="0">Hold liquid</tspan></text><rect x="686.5" y="383.5" width="205" height="58" stroke="#41719C" stroke-width="1.33333" stroke-miterlimit="8" fill="#9DC3E6"/><rect x="686.5" y="364.5" width="205" height="19" stroke="#41719C" stroke-width="1.33333" stroke-miterlimit="8" fill="#5B9BD5"/><text font-family="Calibri,Calibri_MSFontService,sans-serif" font-weight="700" font-size="13" transform="translate(695.915 378)">FR<tspan font-weight="400" font-size="13" x="16.6667" y="0">Keep temperature</tspan></text><rect x="93.5001" y="383.5" width="204" height="58" stroke="#41719C" stroke-width="1.33333" stroke-miterlimit="8" fill="#9DC3E6"/><rect x="93.5001" y="364.5" width="204" height="19" stroke="#41719C" stroke-width="1.33333" stroke-miterlimit="8" fill="#5B9BD5"/><text font-family="Calibri,Calibri_MSFontService,sans-serif" font-weight="700" font-size="13" transform="translate(102.229 378)">FR<tspan font-weight="400" font-size="13" x="16.6667" y="0">Manual handling</tspan></text><rect x="983.5" y="383.5" width="204" height="58" stroke="#41719C" stroke-width="1.33333" stroke-miterlimit="8" fill="#9DC3E6"/><rect x="983.5" y="364.5" width="204" height="19" stroke="#41719C" stroke-width="1.33333" stroke-miterlimit="8" fill="#5B9BD5"/><text font-family="Calibri,Calibri_MSFontService,sans-serif" font-weight="700" font-size="13" transform="translate(992.758 378)">FR<tspan font-weight="400" font-size="13" x="16.6666" y="0">Prevent spillage</tspan></text><rect x="93.5001" y="530.5" width="155" height="57" stroke="#BC8C00" stroke-width="1.33333" stroke-miterlimit="8" fill="#FFD966"/><rect x="93.5001" y="511.5" width="155" height="19" stroke="#BC8C00" stroke-width="1.33333" stroke-miterlimit="8" fill="#FFC000"/><text font-family="Calibri,Calibri_MSFontService,sans-serif" font-weight="700" font-size="13" transform="translate(102.626 524)">DS<tspan font-weight="400" font-size="13" x="17.6667" y="0">Rounded handle</tspan></text><rect x="117.5" y="561.5" width="156" height="58" stroke="#BC8C00" stroke-width="1.33333" stroke-miterlimit="8" fill="#FFD966"/><rect x="117.5" y="542.5" width="156" height="19" stroke="#BC8C00" stroke-width="1.33333" stroke-miterlimit="8" fill="#FFC000"/><text font-family="Calibri,Calibri_MSFontService,sans-serif" font-weight="700" font-size="13" transform="translate(127.084 556)">DS<tspan font-weight="400" font-size="13" x="17.6667" y="0">Rectangular handle</tspan></text><rect x="142.5" y="593.5" width="155" height="57" stroke="#BC8C00" stroke-width="1.33333" stroke-miterlimit="8" fill="#FFD966"/><rect x="142.5" y="574.5" width="155" height="19" stroke="#BC8C00" stroke-width="1.33333" stroke-miterlimit="8" fill="#FFC000"/><text font-family="Calibri,Calibri_MSFontService,sans-serif" font-weight="700" font-size="13" transform="translate(151.542 587)">DS<tspan font-weight="400" font-size="13" x="17.6667" y="0">Open handle</tspan></text><path d="M0.108207-0.657826 438.708 71.4881 438.492 72.8038-0.108207 0.657826ZM437.936 67.983 445.181 73.2284 436.638 75.8769Z" transform="matrix(-1 0 0 1 640.681 291.5)"/><path d="M0.295106-0.597793 142.655 69.6795 142.065 70.8751-0.295106 0.597793ZM142.935 66.1004 148.338 73.2284 139.394 73.2739Z" transform="matrix(-1 0 0 1 640.838 291.5)"/><path d="M640.795 290.902 783.32 361.182 782.73 362.378 640.205 292.098ZM783.598 357.603 789.004 364.729 780.06 364.778Z"/><path d="M640.608 290.842 1079.38 362.989 1079.16 364.305 640.392 292.158ZM1078.6 359.484 1085.85 364.729 1077.3 367.378Z"/><path d="M0.630662-0.216126 22.6123 63.9268 21.351 64.359-0.630662 0.216126ZM25.3333 61.5849 24.1429 70.4496 17.7654 64.1784Z" transform="matrix(-1 0 0 1 195.643 441.5)"/><path d="M196.167 441.498 196.461 536.655 195.128 536.659 194.833 441.502ZM199.791 535.311 195.815 543.323 191.791 535.336Z"/><path d="M196.155 441.378 219.71 568.021 218.399 568.265 194.845 441.622ZM222.743 566.101 220.274 574.697 214.878 567.563Z"/><rect x="389.5" y="530.5" width="156" height="57" stroke="#BC8C00" stroke-width="1.33333" stroke-miterlimit="8" fill="#FFD966"/><rect x="389.5" y="511.5" width="156" height="19" stroke="#BC8C00" stroke-width="1.33333" stroke-miterlimit="8" fill="#FFC000"/><text font-family="Calibri,Calibri_MSFontService,sans-serif" font-weight="700" font-size="13" transform="translate(399.072 524)">DS<tspan font-weight="400" font-size="13" x="17.6667" y="0">Cylindrical body</tspan></text><rect x="414.5" y="562.5" width="155" height="57" stroke="#BC8C00" stroke-width="1.33333" stroke-miterlimit="8" fill="#FFD966"/><rect x="414.5" y="543.5" width="155" height="19" stroke="#BC8C00" stroke-width="1.33333" stroke-miterlimit="8" fill="#FFC000"/><text font-family="Calibri,Calibri_MSFontService,sans-serif" font-weight="700" font-size="13" transform="translate(423.612 556)">DS<tspan font-weight="400" font-size="13" x="17.6667" y="0">Conical body</tspan></text><rect x="439.5" y="593.5" width="155" height="58" stroke="#BC8C00" stroke-width="1.33333" stroke-miterlimit="8" fill="#FFD966"/><rect x="439.5" y="574.5" width="155" height="19" stroke="#BC8C00" stroke-width="1.33333" stroke-miterlimit="8" fill="#FFC000"/><text font-family="Calibri,Calibri_MSFontService,sans-serif" font-weight="700" font-size="13" transform="translate(448.151 588)">DS<tspan font-weight="400" font-size="13" x="17.6667" y="0">Inverted conical body</tspan></text><path d="M0.62951-0.219459 22.9744 63.8759 21.7153 64.3148-0.62951 0.219459ZM25.683 61.5196 24.5394 70.3904 18.1289 64.1531Z" transform="matrix(-1 0 0 1 492.039 441.5)"/><path d="M493.167 441.5 493.167 536.937 491.833 536.937 491.833 441.5ZM496.5 535.603 492.5 543.603 488.5 535.603Z"/><path d="M493.156 441.38 516.493 568.639 515.181 568.879 491.844 441.62ZM519.531 566.726 517.039 575.316 511.662 568.169Z"/><rect x="686.5" y="531.5" width="155" height="57" stroke="#BC8C00" stroke-width="1.33333" stroke-miterlimit="8" fill="#FFD966"/><rect x="686.5" y="512.5" width="155" height="19" stroke="#BC8C00" stroke-width="1.33333" stroke-miterlimit="8" fill="#FFC000"/><text font-family="Calibri,Calibri_MSFontService,sans-serif" font-weight="700" font-size="13" transform="translate(695.681 525)">DS<tspan font-weight="400" font-size="13" x="17.6667" y="0">Thick walls</tspan></text><rect x="711.5" y="563.5" width="155" height="57" stroke="#BC8C00" stroke-width="1.33333" stroke-miterlimit="8" fill="#FFD966"/><rect x="711.5" y="544.5" width="155" height="19" stroke="#BC8C00" stroke-width="1.33333" stroke-miterlimit="8" fill="#FFC000"/><text font-family="Calibri,Calibri_MSFontService,sans-serif" font-weight="700" font-size="13" transform="translate(720.22 557)">DS<tspan font-weight="400" font-size="13" x="17.6667" y="0">Double walls</tspan></text><rect x="735.5" y="595.5" width="155" height="57" stroke="#BC8C00" stroke-width="1.33333" stroke-miterlimit="8" fill="#FFD966"/><rect x="735.5" y="576.5" width="155" height="19" stroke="#BC8C00" stroke-width="1.33333" stroke-miterlimit="8" fill="#FFC000"/><text font-family="Calibri,Calibri_MSFontService,sans-serif" font-weight="700" font-size="13" transform="translate(744.759 589)">DS<tspan font-weight="400" font-size="13" x="17.6667" y="0">Peltier element</tspan></text><path d="M0.629925-0.218265 23.2208 64.9805 21.961 65.417-0.629925 0.218265ZM25.9339 62.6293 24.7735 71.4979 18.3748 65.2484Z" transform="matrix(-1 0 0 1 789.274 441.5)"/><path d="M0.666665-0.00150967 0.885794 96.7649-0.447536 96.7679-0.666665 0.00150967ZM4.2161 95.424 0.234226 103.433-3.78388 95.4421Z" transform="matrix(-1 0 0 1 788.734 441.5)"/><path d="M789.156 441.382 812.283 570.189 810.971 570.424 787.844 441.618ZM815.328 568.287 812.805 576.868 807.454 569.701Z"/><rect x="983.5" y="531.5" width="155" height="57" stroke="#BC8C00" stroke-width="1.33333" stroke-miterlimit="8" fill="#FFD966"/><rect x="983.5" y="512.5" width="155" height="19" stroke="#BC8C00" stroke-width="1.33333" stroke-miterlimit="8" fill="#FFC000"/><text font-family="Calibri,Calibri_MSFontService,sans-serif" font-weight="700" font-size="13" transform="translate(992.289 525)">DS<tspan font-weight="400" font-size="13" x="17.6667" y="0">Filling limit indicator</tspan></text><rect x="1007.5" y="562.5" width="155" height="58" stroke="#BC8C00" stroke-width="1.33333" stroke-miterlimit="8" fill="#FFD966"/><rect x="1007.5" y="543.5" width="155" height="19" stroke="#BC8C00" stroke-width="1.33333" stroke-miterlimit="8" fill="#FFC000"/><text font-family="Calibri,Calibri_MSFontService,sans-serif" font-weight="700" font-size="13" transform="translate(1016.83 557)">DS<tspan font-weight="400" font-size="13" x="17.6667" y="0">Lid</tspan></text><path d="M0.629284-0.220104 23.436 64.985 22.1775 65.4252-0.629284 0.220104ZM26.1422 62.6259 25.0078 71.4979 18.5908 65.2672Z" transform="matrix(-1 0 0 1 1085.51 441.5)"/><path d="M0.66666-0.00304056 1.10471 96.0408-0.228614 96.0469-0.66666 0.00304056ZM4.43192 94.6923 0.468451 102.71-3.56799 94.7288Z" transform="matrix(-1 0 0 1 1085.97 441.5)"/></g></svg>